<svg t="1724240773703" class="icon" viewBox="0 0 1024 1024" version="1.1" xmlns="http://www.w3.org/2000/svg" p-id="7310" width="128" height="128"><path d="M127.20128 227.15904c-13.23008 0-25.6-7.12704-32.30208-18.6112a37.39136 37.39136 0 0 1-0.02048-37.34528c6.55872-11.47904 18.95424-18.64192 32.32256-18.64192h777.9072a37.46304 37.46304 0 0 1 32.32256 18.64192 37.38624 37.38624 0 0 1 0 37.31456c-6.55872 11.48416-18.95424 18.64192-32.32256 18.64192H127.20128zM129.89952 265.14432v384.4608H902.5024V263.52128l-772.60288 1.62304z m432.9728 275.34848c-7.24992 7.24992-18.88768 7.24992-25.9328 0L445.8496 449.40288l-130.2016 130.09408a18.37056 18.37056 0 0 1-25.63072-0.40448 18.37056 18.37056 0 0 1-0.4096-25.63584l143.0528-143.16544c7.25504-7.24992 18.8928-7.24992 25.93792 0l91.08992 91.08992 168.99584-169.00096a18.3808 18.3808 0 0 1 25.63072 0.4096 18.36544 18.36544 0 0 1 0.4096 25.63072l-181.85216 182.07232zM414.90944 874.88a37.43744 37.43744 0 0 1-32.31744-18.64192 37.30944 37.30944 0 0 1 0-37.31456c6.5536-11.47904 18.944-18.64192 32.31744-18.64192h54.7072v-35.7888H126.90432c-19.89632 0-36.23424-15.6416-37.1968-35.60448-0.70144-20.18304 14.34624-37.1968 34.23232-38.85568l0.39936-0.03584h783.62112l0.40448 0.03584c19.98848 1.664 34.8928 18.72896 33.93024 38.85568-0.9728 19.96288-17.3568 35.60448-37.28896 35.60448h-360.89344v35.7888h54.70208a37.45792 37.45792 0 0 1 32.32256 18.64192 37.3504 37.3504 0 0 1 0 37.30944c-6.56384 11.48416-18.95424 18.64704-32.32256 18.64704H414.90944z" fill="#1296db" p-id="7311"></path></svg>