<svg t="1725217623888" class="icon" viewBox="0 0 1024 1024" version="1.1" xmlns="http://www.w3.org/2000/svg" p-id="9003" width="128" height="128"><path d="M181.361778 417.109333l185.856-124.416a29.696 29.696 0 0 1 41.528889-36.750222L589.425778 43.008a29.866667 29.866667 0 1 1 55.182222 5.176889l190.236444 267.946667a29.752889 29.752889 0 1 1-20.48 13.482666l-188.757333-266.126222a29.866667 29.866667 0 0 1-20.024889-1.706667l-181.475555 213.674667a29.866667 29.866667 0 0 1-39.537778 34.929778L193.251556 438.499556l0.113777 2.503111a29.866667 29.866667 0 1 1-11.946666-23.893334z m68.551111 390.030223a32.597333 32.597333 0 0 1-32.426667 32.483555H124.017778a32.597333 32.597333 0 0 1-32.540445-32.483555v-256c0-17.92 14.677333-32.540444 32.540445-32.540445h93.411555c17.863111 0 32.426667 14.677333 32.426667 32.483556v256z m226.247111 0a32.654222 32.654222 0 0 1-32.540444 32.483555H350.208a32.654222 32.654222 0 0 1-32.540444-32.483555V396.629333c0-17.863111 14.677333-32.540444 32.540444-32.540444h93.411556c17.863111 0 32.540444 14.677333 32.540444 32.540444v410.510223z m226.247111 0a32.597333 32.597333 0 0 1-32.426667 32.483555h-93.525333a32.597333 32.597333 0 0 1-32.540444-32.483555V185.344c0-17.92 14.677333-32.597333 32.540444-32.597333h93.468445c17.863111 0 32.426667 14.677333 32.426666 32.540444v621.795556z m226.247111 0a32.654222 32.654222 0 0 1-32.540444 32.483555h-93.525334a32.824889 32.824889 0 0 1-32.540444-32.483555v-337.351112c0-17.806222 14.791111-32.483556 32.540444-32.483555h93.525334c17.863111 0 32.540444 14.677333 32.540444 32.540444v337.294223z m34.531556 157.468444a32.654222 32.654222 0 0 1-32.483556 32.483556H89.429333A32.597333 32.597333 0 0 1 56.888889 964.608v-69.063111c0-17.92 14.620444-32.597333 32.540444-32.597333h841.386667c17.749333 0 32.426667 14.677333 32.426667 32.597333v69.063111h-0.056889z" fill="#2F8DF7" p-id="9004"></path></svg>