<svg t="1705935896156" class="icon" viewBox="0 0 1024 1024" version="1.1" xmlns="http://www.w3.org/2000/svg" p-id="1175" width="16" height="16"><path d="M409.856 885.845333h226.474667v-293.845333a31.36 31.36 0 0 0-8.362667-22.741333 29.056 29.056 0 0 0-21.930667-8.661334h-165.418666a29.696 29.696 0 0 0-22.314667 8.661334 31.232 31.232 0 0 0-8.448 22.741333v293.845333z m-154.026667 53.205334h532.565334c29.909333 0 53.162667-8.448 69.802666-25.301334 16.597333-16.853333 24.917333-40.277333 24.917334-70.314666V392.448l-77.397334-54.826667v481.28c0 12.970667-3.2 22.912-9.685333 29.781334-6.442667 6.912-15.786667 10.368-28.074667 10.368H276.309333c-12.245333 0-21.674667-3.413333-28.245333-10.368-6.570667-6.869333-9.813333-16.810667-9.813333-29.781334V337.962667L160.853333 392.533333v450.986667c0 29.994667 8.362667 53.418667 25.088 70.272 16.682667 16.853333 40.021333 25.301333 69.930667 25.301333zM42.666667 479.445333a38.826667 38.826667 0 0 0 10.837333 27.477334c7.253333 7.722667 17.066667 11.605333 29.482667 11.605333 6.144 0 11.946667-1.493333 17.365333-4.437333a99.84 99.84 0 0 0 15.488-10.325334l390.826667-339.072a25.130667 25.130667 0 0 1 16.853333-7.296c5.802667 0 11.434667 2.432 16.853333 7.253334l390.656 339.114666c4.693333 3.968 9.770667 7.424 15.189334 10.325334a35.968 35.968 0 0 0 17.365333 4.437333c11.306667 0 20.778667-3.413333 28.458667-10.24 7.68-6.826667 11.52-16.085333 11.52-27.818667a42.069333 42.069333 0 0 0-15.104-33.28l-409.642667-356.010666c-16.938667-14.72-35.413333-22.058667-55.296-22.058667-19.882667 0-38.314667 7.338667-55.296 22.058667l-410.069333 356.096a40.661333 40.661333 0 0 0-15.488 32.170666z m729.002666-197.333333l111.445334 96.938667V182.485333c0-9.173333-2.645333-16.469333-7.893334-21.888a28.074667 28.074667 0 0 0-21.162666-8.192h-53.248a28.288 28.288 0 0 0-21.077334 8.192c-5.376 5.418667-8.064 12.714667-8.064 21.888v99.626667z" p-id="1176" fill="#1296db"></path></svg>