<svg t="1724241186275" class="icon" viewBox="0 0 1024 1024" version="1.1" xmlns="http://www.w3.org/2000/svg" p-id="16048" width="128" height="128"><path d="M903.021 278.094H400.37c-31.329 0-56.818-25.516-56.818-56.88 0-31.363 25.489-56.878 56.818-56.878h502.651c31.296 0 56.757 25.516 56.757 56.878-0.001 31.364-25.462 56.88-56.757 56.88z" fill="#036EB8" p-id="16049"></path><path d="M220.937 278.094H128.54c-31.298 0-56.761-25.516-56.761-56.88 0-31.363 25.463-56.878 56.761-56.878h92.397c31.331 0 56.819 25.516 56.819 56.878 0 31.364-25.489 56.88-56.819 56.88z" fill="#00A0E9" p-id="16050"></path><path d="M903.021 560.563H400.37c-31.329 0-56.818-25.516-56.818-56.879s25.489-56.878 56.818-56.878h502.651c31.296 0 56.757 25.515 56.757 56.878s-25.462 56.879-56.757 56.879z" fill="#036EB8" p-id="16051"></path><path d="M220.937 560.563H128.54c-31.298 0-56.761-25.516-56.761-56.879s25.463-56.878 56.761-56.878h92.397c31.331 0 56.819 25.515 56.819 56.878s-25.489 56.879-56.819 56.879z" fill="#00A0E9" p-id="16052"></path><path d="M903.021 843.031H400.37c-31.329 0-56.818-25.515-56.818-56.878 0-31.364 25.489-56.88 56.818-56.88h502.651c31.296 0 56.757 25.516 56.757 56.88-0.001 31.364-25.462 56.878-56.757 56.878z" fill="#036EB8" p-id="16053"></path><path d="M220.937 843.031H128.54c-31.298 0-56.761-25.515-56.761-56.878 0-31.364 25.463-56.88 56.761-56.88h92.397c31.331 0 56.819 25.516 56.819 56.88 0 31.364-25.489 56.878-56.819 56.878z" fill="#00A0E9" p-id="16054"></path></svg>