<svg t="1725217543704" class="icon" viewBox="0 0 1024 1024" version="1.1" xmlns="http://www.w3.org/2000/svg" p-id="5500" width="128" height="128"><path d="M16.855967 461.131099l222.739565-199.863609c3.611993-3.009994 9.029982-4.213992 13.243974-2.407996l365.413286 140.867725 363.60729-294.377425c7.825985-7.825985 21.069959-1.805996 21.069959 9.029983v586.346854c0 7.223986-5.417989 12.641975-12.641975 12.641976H25.283951c-7.223986 0-12.641975-6.019988-12.641976-12.641976V470.763081c0-3.611993 1.805996-7.223986 4.213992-9.631982z" fill="#ADE4E3" p-id="5501"></path><path d="M18.059965 591.764844l212.505585-133.04174c3.009994-1.805996 7.223986-2.407995 10.23398-0.601999l370.229277 195.047619c4.213992 1.805996 8.427984 1.203998 12.039976-1.805996l361.801293-237.187537c7.825985-5.417989 18.661964 0.601999 18.661964 10.23398v487.017049c0 6.019988-4.815991 10.835979-10.835979 10.835979H24.079953c-6.019988 0-10.835979-4.815991-10.835979-10.835979V601.998824c0-4.815991 1.805996-8.427984 4.815991-10.23398z" fill="#D6EBF3" p-id="5502"></path><path d="M27.089947 467.151088c-4.815991 0-9.631981-1.805996-13.243974-6.019989-6.621987-7.223986-6.019988-18.661964 1.203998-25.28395l222.137566-198.659612c5.417989-4.815991 12.641975-6.019988 19.263962-3.009994l359.995297 155.917695 364.209289-297.989418c7.825985-6.019988 18.661964-4.815991 25.28395 2.407995 6.019988 7.825985 4.815991 18.661964-2.407995 25.283951l-372.637272 304.611405c-5.417989 4.213992-12.039976 5.417989-18.661964 2.407995L252.839506 271.50147 39.129924 462.937096c-3.611993 3.009994-7.825985 4.213992-12.039977 4.213992z" fill="#54C7C4" p-id="5503"></path><path d="M610.426808 676.646678c-3.009994 0-5.417989-0.601999-7.825985-1.805996L223.943563 484.007055 40.93592 598.98883c-8.427984 5.417989-19.263962 3.009994-24.681952-5.417989-5.417989-8.427984-3.009994-19.263962 5.41799-24.681952l191.435626-121.001764c5.417989-3.611993 12.039976-3.611993 17.457966-0.601999l378.65726 190.833628 372.637272-236.585538c8.427984-5.417989 19.263962-3.009994 24.681952 5.417989 5.417989 8.427984 3.009994 19.263962-5.417989 24.681952L620.058789 673.636684c-3.009994 1.805996-6.019988 3.009994-9.631981 3.009994z" fill="#4AA1BF" p-id="5504"></path><path d="M1024 936.108172H0V89.095826h26.487948V909.018225h997.512052z" fill="#999999" p-id="5505"></path></svg>