<svg t="1724241504137" class="icon" viewBox="0 0 1024 1024" version="1.1" xmlns="http://www.w3.org/2000/svg" p-id="22550" width="128" height="128"><path d="M874.5 544.9c-10.2-9.1-23.8-13.8-37.3-13.7-102.3 1.2-204.5 0-306.8-3.1l-18.7-0.6c-4.6-0.5-8.8-3.1-11.4-6.7-1.4-2-1.9-3.3-3.1-6.8l-3.2-9-6.4-18.1-25.6-72.3c-17.2-48.2-34.7-96.2-52.4-144.2l-13.4-35.9-6.7-18-1.7-4.5-2.4-5.6c-1.8-3.6-3.8-7.3-6.3-10.5-9.7-13.5-24.6-22.8-40.8-26.1-16.1-3.6-33.8-0.3-47.9 7.8-23 13.4-45 28.5-65.3 45.8-20 17.6-39 36.5-55.5 57.6-33.1 41.9-58.6 90.2-73.3 142-4.2 12.8-6.5 26.1-9.5 39.2-1.2 6.6-2 13.3-3.1 19.9l-1.5 10-0.8 10.1c-3 26.8-1.7 53.8 0.7 80.7 10.7 107.7 65.7 210.6 149.8 280.4 42 34.9 91.1 61.7 143.7 77.6 52.6 16 108.4 20.7 162.7 14.8 54.4-5.9 107.2-23.7 154.1-50.8 46.8-27.2 87.5-63.8 119.5-106.2 7.8-10.7 15-21.9 22.4-32.8 6.3-11.6 13-23 18.9-34.7l8.1-18c2.6-6 5.6-11.8 7.5-18.1l6.4-18.5 3.2-9.2c1-3.1 1.7-6.3 2.5-9.4l4.9-18.9c0.8-3.2 1.7-6.2 2.3-9.5l1.6-9.6 3.1-19.2c1.2-6.1 1.8-13.4 1-20.2-1.9-14-9.2-26.7-19.3-35.7z m8.4 54.1l-4.4 18.4-2.2 9.2c-0.8 3.1-1.9 6-2.9 9l-6 17.9c-17.4 47.1-44.3 90.3-78.6 125.9-68.5 71.4-161.4 113.6-256.1 120.8-47.4 3.9-95.3-1.3-140.5-14.9-45.3-13.6-88.2-35.7-125.8-64.9-37.8-29-69.9-65.7-93.9-107.2s-39.9-87.8-46.3-135.5c-13.2-95.8 12.9-196.6 71.9-274.5 14.5-19.7 31.5-37.4 49.3-54.1 18.2-16.3 38.1-30.8 58.9-43.7 7.9-4.8 16.9-6.7 25.9-5.1 8.9 1.5 17.3 6.4 22.7 13.6 1.5 1.7 2.6 3.7 3.7 5.7l1.5 3.2 1.8 4.4 7.2 17.8 14.4 35.5c19.4 47.3 38.9 94.6 58.9 141.7l29.9 70.6 7.5 17.7 3.7 8.8c1 2.5 3 7.2 5.7 10.2 5.3 6.5 13.3 10.4 21.4 10.9 2.2 0.1 3.7 0 5.3-0.1l4.8-0.1 9.6-0.3c102.3-3 204.5-4.2 306.8-3.1 12.1 0.3 24 4.9 32.7 13.2 8.7 8.2 14.3 19.6 15 31.3 0.6 5.9-0.2 11.4-1.9 17.7z" fill="#1296db" p-id="22551"></path><path d="M957.2 430.5c-4.5-24.5-10.6-48.6-18.3-72.2-7.6-23.7-17.1-46.9-28.6-69.2-22.6-44.8-53.7-86.4-93-119.3-4.8-4.2-9.8-8.3-15-12-5.1-3.8-10.1-7.9-15.5-11.4l-8-5.4-4-2.7-2-1.3-2.6-1.5c-6.9-4.1-14.7-6.8-22.8-8-16.1-2.6-33 0.8-47 9.5-7 4.3-13.3 9.9-18.4 16.5-2.6 3.3-4.8 6.8-6.7 10.5l-2.7 5.5-1.9 4.2-27.1 62.5c4.7-17.4 9.1-34.9 13.3-52.5l7.4-29.9c3.4-11.1 3.6-24 0.6-35-5.9-22.5-24.4-39.5-45.6-43.5-40.2-7.8-81-11.9-122.4-11.4-10.3 0.1-20.7 0.6-31.1 1.5-5.2 0.4-10.4 1-15.5 1.7l-7.8 1.1-3.9 0.6-4.5 1c-11.9 2.9-23 9.8-31.3 19.3-8.2 9.6-13.7 21.6-15.3 34.4-0.7 6.4-0.7 13 0.6 19.3 0.5 3.2 1.4 6.3 2.4 9.5 0.9 3.1 1.7 5 2.6 7.5l10 28.9 20 57.7 40.7 115.1 20.1 58.1c3.5 9.4 10.7 18.5 20.1 24 9.3 5.6 20.1 7.8 30.7 6.7 5.8-0.6 11.6-2.4 17-5.2 0 0 0 0.1-0.1 0.1l-0.9 2.1c-0.4 0.9-0.5 1-1.2 2.9-1.2 3.1-2.1 6.4-2.7 9.7-1.1 6.7-0.9 13.8 0.7 20.5 3.3 13.3 11.7 25.1 23.8 32.2 6 3.5 12.8 5.8 19.6 6.7 1.7 0.2 3.4 0.3 5.1 0.4l3 0.1 4.6 0.1c6.2 0.1 12.4 0.2 18.5 0.2 24.7 0.1 49.4-0.5 74.1-1.1 49.4-1.5 98.8-6.7 148.3-13l37.1-4.4 18.5-2c2.9-0.2 6.8-0.8 10.2-1.4 3.5-0.8 6.9-1.7 10.1-3.1 26.7-10 41.8-38.9 36.8-64.6z m-432.8-30.6z m5.2 1c-0.2-0.5-0.5-1.1-0.7-1.6 0.1 0.1 0.2 0.1 0.3 0.2 0.5 0.5 0.7 1.5 0.4 1.4z m-3.1-7c-7-15.8-14.2-32.4-21.1-48.6L457.6 233l-24.3-56-12.1-28c-0.9-2.2-2.2-5-2.9-6.7-0.6-1.7-1.4-3.4-1.8-5.2-1-3.5-1.3-7.3-1.2-11 0.1-15 10.1-30.1 25.2-36.2l2.9-1.1 3.5-1.1 7.2-2.1c4.8-1.3 9.6-2.7 14.5-3.8 9.7-2.4 19.5-4.4 29.4-6 39.7-6.5 81-5 120.2 5.2 9.2 2.7 17.8 7.7 23.5 15.2 6 7.2 9.2 16.3 9.7 25.2 0.3 9-1.9 17.2-6.7 24.8l-15.5 26.7c-21 35.4-41 71.2-57.6 108.4-16.5 36.6-31.6 74.3-45.1 112.6z m70.8 68.4c0.1 0 0.1 0 0 0z m4.2 7.2c-0.2 0.4 0.1-0.5 0.4-1.1v0.3c-0.2 0.3-0.3 0.6-0.4 0.8z m342-5.3c-6.5 9.4-16.6 15.8-27.1 17.9-5.4 1.3-10.2 0.9-16.2 0.4l-18.5-2-37.1-4.4c-49.4-6.2-98.8-11.5-148.3-13-24.7-0.7-49.4-1.2-74.1-1.1-6-0.1-12.1 0.1-18.1 0.1 16.3-45.3 32.3-90.7 49.2-135.8l51.9-138.9 1.6-4.4 1.2-3c0.8-1.9 1.8-3.6 2.9-5.3 2.2-3.4 5.1-6.4 8.5-8.7 6.7-4.9 15.3-7.3 23.7-6.5 4.2 0.3 8.4 1.4 12.3 3.4l1.5 0.7 1.9 1.1 3.8 2.3 7.7 4.5c5.2 2.9 10 6.4 15 9.6 5 3.2 9.9 6.7 14.6 10.3 38.5 28.2 72.9 62.8 100.2 103.3 27.5 40.4 45 87.8 51.5 136.4 1.4 11.9-1.3 23.9-8.1 33.1z" fill="#1296db" p-id="22552"></path></svg>